<svg version="1.1" id="Camada_1" xmlns="http://www.w3.org/2000/svg" x="0" y="0" viewBox="0 0 172 72" xml:space="preserve"><style>.st1{fill:#2670ca}</style><path d="M28.04 44.55l-4.31-6.59c-.19-.3-.55-.41-.69-.45-.13-.02-.26-.03-.39-.05-6.65 1.2-10.45 7.66-10.45 7.66.16-.09.33-.19.52-.28.06-.03.12-.06.17-.09.04-.02.08-.04.11-.06.08-.04.17-.08.25-.12.05-.02.09-.04.14-.06 1.88-.82 4.05-1.29 6.35-1.29 2.94 0 5.65.76 7.84 2.05 0 0 .31.16.53-.05.22-.2.12-.38-.07-.67" fill="#abbad4"/><path class="st1" d="M20.78 17.15c-.24 0-.47.12-.61.33L5.58 39.83c-.15.23-.16.54-.01.77l3.67 5.98c.13.21.36.34.61.35h.01c.24 0 .47-.12.61-.33L20.8 30.79V17.15h-.02z"/><path d="M20.78 17.15c.24 0 .47.12.61.33l14.6 22.36c.15.23.16.54.01.77l-3.67 5.98a.75.75 0 01-.61.35h-.01c-.24 0-.47-.12-.61-.33L20.78 30.79V17.15zm39.38 23.04H48.32l-2.33 5.48h-4.53L52.11 22h4.33l10.68 23.67h-4.6l-2.36-5.48zm-1.46-3.45l-4.46-10.35-4.43 10.35h8.89zm21.71 7.94c-1.01.81-2.54 1.22-4.06 1.22-3.96 0-6.22-2.1-6.22-6.09v-8.69h-2.98v-3.38h2.98v-7.17h4.23v7.17h4.84v3.38h-4.84v8.59c0 1.76.88 2.7 2.5 2.7.88 0 1.72-.24 2.37-.74l1.18 3.01zm21.27-9.36v10.35h-4.23v-9.81c0-3.21-1.59-4.77-4.29-4.77-3.01 0-5.04 1.83-5.04 5.44v9.13h-4.23V20.58h4.23v9.13c1.39-1.49 3.52-2.3 6.02-2.3 4.33 0 7.54 2.46 7.54 7.91m22.45 2.67h-14.17c.51 2.64 2.7 4.33 5.85 4.33 2.03 0 3.62-.64 4.9-1.96l2.27 2.6c-1.62 1.93-4.16 2.94-7.27 2.94-6.05 0-9.97-3.89-9.97-9.26 0-5.38 3.96-9.23 9.33-9.23 5.27 0 9.13 3.69 9.13 9.33 0 .34-.04.84-.07 1.25m-14.2-2.81h10.25c-.34-2.6-2.33-4.4-5.11-4.4-2.74.01-4.74 1.77-5.14 4.4m36.11.14v10.35h-4.23v-9.81c0-3.21-1.59-4.77-4.29-4.77-3.01 0-5.04 1.83-5.04 5.44v9.13h-4.23V27.61h4.02v2.33c1.39-1.66 3.58-2.54 6.22-2.54 4.34.01 7.55 2.47 7.55 7.92m20.49-.24v10.58h-3.99v-2.2c-1.01 1.56-2.98 2.43-5.68 2.43-4.13 0-6.73-2.27-6.73-5.41 0-3.01 2.03-5.38 7.51-5.38h4.67v-.27c0-2.47-1.49-3.92-4.5-3.92-2.03 0-4.13.68-5.48 1.79l-1.66-3.06c1.93-1.49 4.73-2.23 7.64-2.23 5.21 0 8.22 2.46 8.22 7.67m-4.23 4.94v-2.1h-4.36c-2.87 0-3.65 1.08-3.65 2.4 0 1.52 1.28 2.5 3.45 2.5 2.06 0 3.85-.94 4.56-2.8" fill="#013171"/><path class="st1" d="M128.25 56.66l.24-.5c.34.3.91.52 1.49.52.78 0 1.12-.3 1.12-.7 0-1.1-2.74-.41-2.74-2.09 0-.7.54-1.29 1.73-1.29.53 0 1.08.14 1.45.4l-.21.52c-.39-.25-.84-.37-1.24-.37-.77 0-1.1.32-1.1.72 0 1.1 2.74.41 2.74 2.07 0 .69-.56 1.28-1.75 1.28-.69 0-1.37-.23-1.73-.56m11.18-.62h-2.4l-.5 1.13h-.67l2.05-4.52h.64l2.05 4.52h-.68l-.49-1.13zm-.23-.51l-.98-2.22-.97 2.22h1.95zm5.82-.31v-2.57h.65v2.54c0 1 .46 1.45 1.27 1.45s1.28-.45 1.28-1.45v-2.54h.63v2.57c0 1.31-.72 2-1.91 2-1.2 0-1.92-.69-1.92-2m2.31-3.78h.79l-1.08.84h-.58l.87-.84zm6.71 1.21h1.9c1.45 0 2.44.92 2.44 2.26s-.99 2.26-2.44 2.26h-1.9v-4.52zm1.86 3.96c1.12 0 1.83-.68 1.83-1.7 0-1.01-.72-1.7-1.83-1.7h-1.22v3.4h1.22zm10.63 0v.56h-3.28v-4.52h3.19v.56h-2.54v1.39h2.27v.55h-2.27v1.46h2.63z"/></svg>