<?xml version="1.0" encoding="UTF-8"?>
<svg id="Layer_1" data-name="Layer 1" xmlns="http://www.w3.org/2000/svg" viewBox="0 0 131.43 124.63">
  <defs>
    <style>
      .cls-1 {
        fill: #fff;
      }
    </style>
  </defs>
  <path class="cls-1" d="M79.26,49.73s2.5,2.51,7.64,1.73c0,0,2.26,12.25,0,20.41l-.42-2.21s-.52-3.17-4.87-5.81c0,0,3.58,4.04,1.01,11.52-.61-1.33-1.59-2.7-1.59-2.7.28,2.67.06,3.98-.78,4.16-4.8,1.18-3.12-9.47-3.12-9.47,0,0-2.05,4.57-2.05,9.44l-1.44-.04-1.49-.03c2.34-7.83,3.47-17.19,3.47-17.19,0,0,2.29,5.61,4.12,4.43,0,0,.69-1.29.08-4.73,0,0-.39-3.5-.55-9.51"/>
  <path class="cls-1" d="M53.11,72.58c-.56-1.71.76-2.36.76-2.36,2.32-.3,2.73,1.15,2.73,1.15-.26.65.76,1.31.76,1.31.7-.04,1.56.85,1.56.85.91,1.51-.56,2.31-.56,2.31-.45.25-.63,1.15-.63,1.15h2.96c1.08-4.83.13-9.62-1.03-15.44,0,0-1.66.82-3.73-4.4-1.88-4.78-1.9-12.77-1.9-12.77-7.6,1.26-14.26-6.56-14.26-6.56-3.63-4.3-6.96-5.53-6.96-5.53,0,0-9.5-.24-4.17,25.85,2.43-4.92,9.44-6.69,9.44-6.69,0,0-6.51,6.76-4.46,16.25,0,0,0-4.97,5.66-7.53,0,0-3.78,3.08-3.09,11.46,0,0,.18.76.64,1.5.6-1.34,1.59-2.69,1.59-2.69-.28,2.67.16,3.78.78,4.16.41-.02.86-.14,1.37-.4,0,0,2.83-1.19,1.54-10.43,0,0,1.54,3.34,1.54,8.21,0,0,5.92-5.9,2.57-15.91,0,0,5.66,5.93.52,20.05,0,0,2.77.36,3.85-4.4,0,0,.58,2.47-.44,5.34h1.35c.5-.73,1.11-2.24,1.11-2.24.26-.35.5-2.26.5-2.26"/>
  <path class="cls-1" d="M61.03,60.75s-1.75-9.37-1.71-9.58c.04-.22-.38,2.64.43,8.43,0,0,.17,1.75-1.03.47l-.04-.05s-3.84-6.09-3.45-16.91c0,0,.17-2.81,1.37-4.17v-.04l-.82-.55c-1.33-1.1,1.2-3.41,2.05-4.14.1-.05.19-.13.27-.23,0,0-.11.08-.27.23-.63.35-1.51-.12-1.51-.12-4.66-4.13-.56-10.75-.56-10.75-.24-5.21-4.97-3.99-4.97-3.99,4.88,1.25,2.38,5.15,2.03,5.71-.02.02-.08.24-.08.24-1.76,7.65,2.84,9.91,2.84,9.91-3.05,2.11-.72,4.3-.72,4.3-.21.73-.66,2.91-.66,2.91-6.07,1.31-12.37-5.52-12.37-5.52-4.57-5.33-9.79-7.03-9.79-7.03-7.91-3.57-10.28-5.76-11.23-7.4-1.31-1.97.86-2.81.86-2.81,1.17-.77,1.3-.69,3.17-2.66.21-.17.14-.59.14-.59-.17-3.81,3.23-6.31,3.23-6.31,1.23-.89,11.57-7.48,11.57-7.48,6.31-5.16,16.39-1.17,16.39-1.17l7.71,5.8c-.97,1.81-6.68,4.34-6.68,4.34,1.82,0,6.12-2.41,6.12-2.41,5.33-4.48,10.42-2.78,10.42-2.78,3.39,1.33,5.09,5.08,5.09,5.08,1.32,2.43,4.85,4.98,6.38,6.01.25.19.49.35.72.47,0,0-.28-.17-.72-.47-2.38-1.82-4.92-6.24-4.92-6.24,4.36.97,8.72-.12,8.72-.12,4.48-1.7,7.39.72,7.39.72,13.94,13.43,14.68,23.09,14.45,25.4-.25,2.3-1.46,1.94-1.46,1.94-2.18-1.33-2.9-.12-2.9-.12-3.51,7.13-9.7,7.62-9.7,7.62-4.48.12-4.48.73-4.48.73-7.43,4.51-13.18.61-13.18.61-.28-1.57-.05-3.36-.05-3.36,3.28-1.71.14-5.9.14-5.9,6.31-3.86,2.65-8.13,2.65-8.13,1.34,4.85-3.96,7.45-4.36,7.72,0,0,2.7,2.88.91,4.55l-.11.04c-.81,4.31.53,13.46.73,16.69l.09.72c.29,2.34-.45,1.75-.45,1.75-1.5-.59-3.35-6.34-3.35-6.34l-.8,3.42c-1.07,7.64-4.3,17.64-4.3,17.64-6.17,18.21-15.5,9.52-15.5,9.52-4.24-3.75-1.81-9.68-1.81-9.68,1.22-2.41,1.46-4.24,1.46-4.24-.25-2.78,1.33-.72,1.33-.72-.12,1.09,1.09,1.46,1.09,1.46,2.06.61.49,2.05.49,2.05-.97.49-.97,2.54-.97,2.54-.36,4.84,2.42,4.11,2.42,4.11,5.6-.63,3.92-14.09,2.48-19.85l-.15-1.19M73.69,43.27c.08.04.12-.05.12-.05,0-.05-.06-.13-.06-.13-4.75-3.29-9.62-1.44-11.03-.76,0,0-.14.1-.11.19,0,0,.08.05.18.03l.09-.03c5.53-1.19,9.63.29,10.67.7l.14.04h0,0ZM73.05,48.97c.08.04.11-.05.11-.05.02-.05-.05-.12-.05-.12-4.42-3.18-9.03-1.52-10.36-.91,0,0-.13.1-.1.18,0,0,.07.05.17.03l.09-.02c5.23-1.03,9.06.45,10.02.85l.14.04h0ZM72.92,54.53c.08.04.11-.04.11-.04.02-.05-.05-.12-.05-.12-4.32-3.11-8.85-1.49-10.15-.89,0,0-.13.1-.1.17,0,0,.06.05.17.03l.08-.02c5.12-1,8.88.44,9.83.83l.13.04h-.01ZM71.84,61.36c.06.03.1-.04.1-.04,0-.05-.05-.1-.05-.1-3.66-2.67-7.51-1.32-8.63-.82,0,0-.11.08-.09.15,0,0,.06.05.14.03l.08-.02c4.35-.82,7.54.42,8.34.77l.11.04h0ZM70.41,67.71s.08-.02.08-.02c0-.04-.03-.08-.03-.08-2.65-2.27-5.68-1.48-6.56-1.16,0,0-.09.05-.08.11,0,0,.04.04.11.03h.05c3.39-.37,5.75.78,6.35,1.09l.08.04ZM57.31,27.84c-.26.13-.97.6-1.14,1.73,0,0-.08.83,1.93-.11.08-.02.17-.15.17-.15.38-.18.54-.27,1.19-.36.16-.02.08-.12.08-.12-.14-.37-.62-1.16-2.06-1.05,0,0-.14.03-.16.04M78.51,31.35c-1.44-.18-1.96.59-2.11.95,0,0-.1.08.06.12.71.22,1.02.22,1.17.41,0,0,.11.1.17.15,1.65,1.12,1.93.21,1.93.21-.11-1.13-.74-1.63-1.05-1.78-.02-.01-.16-.05-.16-.05h0Z"/>
  <path class="cls-1" d="M120.13,89.88s0-1.38,2.87-1.48c0,0,2.45-.2,2.45,1.48,0,0,.53,1.67-2.98,1.67,0,0-2.24.49-2.34-1.67"/>
  <path class="cls-1" d="M105.82,111.61s-1.26-9.87-1.05-15.41c0,0,0-1.88,1.8-1.88,0,0,1.49-.58,2.34,1.09l.32,2.57s1.71-3.85,5.54-3.85c0,0,3.52,0,3.63,3.85,0,0,.43,1.88-1.49,2.18,0,0-2.56.69-2.56-2.07,0,0-.64-.98-2.14-.29,0,0-2.87.88-2.76,3.95,0,0,1.47,4.75,2.69,8.09,0,0,.05,1.64-1.41,2.38,0,0-4.38.98-4.92-.59"/>
  <path class="cls-1" d="M33.78,99.39c.33-.37.48-.61.48-.61.3-.67.46-1.76-.72-2.67l-.04-.02c-.14-.1-.44-.12-.44-.12-.6-.04-1.08.87-2.52,2.08,0,0-5.65,1.18-5.71-1.37,0,0,1.16-3.06,8.71-3.45,0,0,3.38-.61,5.11,8.39,1.77,9.28.89,10.17.89,10.17,0,0-7.02,1.67-5.26-2.27l.11-.59s-2.44,2.66-6.5,2.66c0,0-4.69.34-4.16-3.17,0,0-.33-4.17,9.58-8.72l.26-.16s.17-.12.18-.15l.03-.03h-.02ZM28.31,108.41c3.52,1.09,6.17-1.69,6.17-1.69.85-.89.32-4.64.32-4.64-9.37,3.76-6.5,6.32-6.5,6.32"/>
  <path class="cls-1" d="M61.02,99.39c.33-.37.47-.61.47-.61.3-.67.47-1.76-.72-2.67l-.04-.02c-.14-.1-.44-.12-.44-.12-.6-.04-1.08.87-2.53,2.08,0,0-5.65,1.18-5.71-1.37,0,0,1.14-3.06,8.7-3.45,0,0,3.39-.61,5.11,8.39,1.77,9.28.89,10.17.89,10.17,0,0-7.03,1.67-5.26-2.27l.11-.59s-2.44,2.66-6.49,2.66c0,0-4.69.34-4.16-3.17,0,0-.32-4.17,9.58-8.72l.26-.16s.17-.12.18-.15l.03-.03h.01ZM55.54,108.41c3.51,1.09,6.17-1.69,6.17-1.69.85-.89.32-4.64.32-4.64-9.37,3.76-6.5,6.32-6.5,6.32"/>
  <path class="cls-1" d="M97,99.39c.33-.37.48-.61.48-.61.3-.67.46-1.76-.72-2.67l-.04-.02c-.14-.1-.44-.12-.44-.12-.61-.04-1.08.87-2.53,2.08,0,0-5.65,1.18-5.71-1.37,0,0,1.15-3.06,8.71-3.45,0,0,3.39-.61,5.11,8.39,1.77,9.28.89,10.17.89,10.17,0,0-7.02,1.67-5.26-2.27l.11-.59s-2.45,2.66-6.49,2.66c0,0-4.69.34-4.16-3.17,0,0-.32-4.17,9.58-8.72l.26-.16s.17-.12.18-.15l.03-.03h-.01ZM91.53,108.41c3.51,1.09,6.18-1.69,6.18-1.69.85-.89.32-4.64.32-4.64-9.37,3.76-6.5,6.32-6.5,6.32h0Z"/>
  <path class="cls-1" d="M123.78,94.89s-2.76-.3-3.09,1.67c0,0-1.84,11.65-.23,14.81,0,0,1.51.8,3.11.89,0,0,2.9-.08,3.11-1.36,0,0-1.93-13.95-1.62-14.84,0,0,0-1.09-1.28-1.18"/>
  <path class="cls-1" d="M2.84,93.93c.24-4.17.56-7.65.56-10.29,0,0,2.38-2.93,4.71.16l-.83,8.66,13.03-9.26s4.14.23,4.24,2.4c0,0,.54,1.73-.41,2.52l-17.31,8.12s14.67,6.33,16.13,8.74c0,0-.41,3.84-3.36,3.47l-12.63-8.37,1.04,11.98s-6.2,2.18-8-1.03c0,0,2.15-6.11,2.59-13.33,0,0-1.7-1.45-.13-3.32l.37-.45h0Z"/>
  <path class="cls-1" d="M42.44,85.8l-.35,25.08s1.04,1.48,3.27,1.38c0,0,3.11-.56,3.43-1.45l-1.83-25.11s.4-2.71-2.05-2.81c0,0-2.05.44-2.47,2.91"/>
  <path class="cls-1" d="M74.29,100.2c.79-1.46,2.87-3.44,5.26-3.23,0,0,1.23-.41,1.17,2.37-.11,4.55-1.93,8.78-2.47,10.76,0,0,.66,2.18,2.9,2.18,0,0,2.9.49,3.75-2.46,0,0,3.49-14.12-3.85-15.6,0,0-4.36-.4-7.14,3.26,0,0,.85-10.46,1.07-12.05,0,0,.53-2.07-2.23-2.07,0,0-2.66-.5-2.87,2.55,0,0-1.9,22.73-1.26,24.9,0,0,2.13,1.29,2.97,1.29,0,0,2.68.19,3.11-1.29l-1.09-8.79s.14-.73.7-1.79"/>
  <path class="cls-1" d="M129.83,108.7c.89,0,1.59.72,1.59,1.61s-.71,1.61-1.6,1.61-1.61-.71-1.61-1.61.72-1.61,1.61-1.61h0ZM129.82,109.02c-.67,0-1.21.57-1.21,1.29s.54,1.29,1.22,1.29,1.23-.56,1.23-1.29-.55-1.29-1.23-1.29h0ZM129.55,111.24h-.38v-1.78c.14-.01.3-.05.57-.05.31,0,.5.05.61.14.1.08.16.19.16.38,0,.22-.15.37-.35.41h0c.16.05.26.19.29.45.03.28.08.39.11.44h-.4c-.04-.06-.08-.22-.11-.46-.03-.19-.14-.27-.33-.27h-.17v.73h0,0ZM129.55,110.22h.17c.23,0,.39-.07.39-.25,0-.15-.11-.26-.37-.26h-.21v.52h.01Z"/>
  <path class="cls-1" d="M127.95,120.37c-.03.05-.07.1-.11.12-.03.02-.07.04-.14.04s-.11-.01-.17-.05c-.06-.04-.13-.07-.21-.12-.08-.05-.17-.08-.28-.12-.11-.04-.23-.06-.37-.06-.25,0-.44.05-.56.16s-.19.25-.19.43c0,.11.03.21.1.28s.16.13.27.19c.11.05.24.1.38.15s.29.09.44.14c.15.05.29.11.44.18s.26.16.38.26.2.23.27.39c.07.15.11.34.11.55,0,.24-.05.46-.13.67-.08.2-.2.38-.35.54-.16.15-.35.27-.58.36-.23.09-.49.14-.77.14-.17,0-.33-.02-.5-.05-.17-.03-.32-.08-.47-.14s-.29-.13-.43-.22c-.14-.08-.25-.18-.35-.28l.32-.51s.06-.07.11-.09c.04-.02.09-.04.14-.04.07,0,.14.02.2.08.07.04.16.1.25.16.09.06.2.11.32.16.13.05.27.07.44.07.25,0,.44-.06.58-.17s.21-.28.21-.51c0-.13-.04-.24-.11-.32-.07-.08-.16-.15-.26-.2-.11-.05-.23-.1-.38-.14-.14-.04-.29-.08-.44-.13-.15-.05-.29-.1-.44-.17-.14-.07-.26-.16-.38-.26-.11-.11-.2-.25-.27-.41-.07-.16-.1-.37-.1-.61,0-.19.04-.38.11-.56.08-.18.19-.34.34-.48.15-.14.33-.26.55-.34.22-.08.47-.13.74-.13.32,0,.6.05.87.15.27.1.5.23.68.4l-.26.5v-.02Z"/>
  <path class="cls-1" d="M122.23,119.38v5.2h-.56c-.08,0-.16-.01-.21-.04-.06-.03-.11-.07-.17-.14l-2.59-3.29c0,.08.01.16.01.25v3.23h-.96v-5.2h.68s.06,0,.09.02c.02.01.05.03.08.05s.05.05.08.08l2.62,3.31c0-.09-.02-.18-.02-.26v-3.21h.96,0Z"/>
  <path class="cls-1" d="M115.19,121.97c0,.38-.07.73-.2,1.06-.13.32-.31.61-.54.84-.23.24-.51.42-.84.56-.33.13-.69.2-1.09.2s-.77-.07-1.09-.2c-.33-.14-.61-.32-.84-.56-.23-.24-.41-.52-.55-.84-.13-.32-.19-.67-.19-1.06s.06-.73.19-1.05c.13-.32.31-.61.55-.84.23-.24.52-.42.84-.55.33-.13.69-.2,1.09-.2s.77.07,1.09.2c.33.13.61.32.84.56.23.24.41.52.54.84.13.32.2.68.2,1.05h0ZM114.09,121.97c0-.27-.04-.52-.11-.73-.07-.22-.17-.4-.32-.55-.14-.15-.3-.27-.49-.34-.19-.08-.41-.12-.65-.12s-.47.04-.65.12c-.2.08-.36.19-.5.34-.14.15-.24.34-.31.55-.08.22-.11.46-.11.73s.04.52.11.73c.08.22.17.4.31.55.14.15.3.26.5.34.2.08.41.12.65.12s.46-.04.65-.12c.2-.08.36-.19.49-.34.14-.15.24-.33.32-.55.08-.22.11-.46.11-.73Z"/>
  <path class="cls-1" d="M107.27,124.57h-1.08v-5.2h1.08v5.2Z"/>
  <path class="cls-1" d="M103.74,120.24h-1.53v4.33h-1.08v-4.33h-1.52v-.87h4.13v.87Z"/>
  <path class="cls-1" d="M97.17,119.38v5.2h-.56c-.08,0-.16-.01-.21-.04-.06-.03-.11-.07-.17-.14l-2.59-3.29c0,.08.01.16.01.25v3.23h-.95v-5.2h.68s.06,0,.09.02c.02.01.05.03.07.05.02.02.05.05.08.08l2.62,3.31c0-.09-.01-.18-.02-.26v-3.21h.95,0Z"/>
  <path class="cls-1" d="M87.86,120.22v1.34h1.74v.81h-1.74v1.36h2.23v.84h-3.32v-5.2h3.32v.84h-2.23Z"/>
  <path class="cls-1" d="M84.5,119.38l-2.1,5.2h-.98l-2.1-5.2h.87c.09,0,.17.02.23.07.06.04.11.1.14.16l1.13,2.99c.05.11.08.23.13.37.05.13.08.27.12.41.03-.14.07-.28.1-.41.04-.14.08-.26.12-.37l1.12-2.99c.02-.06.07-.11.13-.16.06-.05.14-.08.23-.08h.87,0Z"/>
  <path class="cls-1" d="M77.05,119.38v5.2h-.56c-.08,0-.16-.01-.21-.04-.06-.03-.11-.07-.17-.14l-2.59-3.29c0,.08.01.16.01.25v3.23h-.95v-5.2h.68s.06,0,.09.02c.02.01.05.03.07.05.02.02.05.05.08.08l2.62,3.31c0-.09-.02-.18-.02-.26v-3.21h.95,0Z"/>
  <path class="cls-1" d="M70,121.97c0,.38-.07.73-.2,1.06-.13.32-.31.61-.54.84-.23.24-.51.42-.84.56-.33.13-.69.2-1.09.2s-.77-.07-1.09-.2c-.33-.14-.61-.32-.84-.56-.23-.24-.41-.52-.55-.84-.13-.32-.19-.67-.19-1.06s.06-.73.19-1.05c.13-.32.31-.61.55-.84.23-.24.52-.42.84-.55.33-.13.69-.2,1.09-.2s.77.07,1.09.2c.33.13.61.32.84.56s.41.52.54.84c.13.32.2.68.2,1.05h0ZM68.9,121.97c0-.27-.04-.52-.1-.73-.08-.22-.17-.4-.32-.55-.14-.15-.3-.27-.49-.34-.19-.08-.41-.12-.65-.12s-.47.04-.65.12c-.2.08-.36.19-.5.34-.14.15-.24.34-.31.55-.07.22-.11.46-.11.73s.04.52.11.73c.08.22.17.4.31.55.14.15.3.26.5.34.2.08.41.12.65.12s.46-.04.65-.12c.2-.08.36-.19.49-.34.14-.15.24-.33.32-.55.08-.22.1-.46.1-.73Z"/>
  <path class="cls-1" d="M62.09,123.29c.06,0,.11.02.15.07l.43.46c-.21.27-.47.47-.79.61-.31.13-.68.21-1.11.21-.39,0-.74-.07-1.05-.2-.31-.14-.58-.32-.8-.56-.22-.24-.38-.52-.5-.84-.12-.32-.17-.68-.17-1.06,0-.26.03-.5.08-.74.06-.23.14-.45.25-.64.11-.19.24-.37.39-.53.15-.16.32-.29.52-.4.19-.11.4-.19.62-.25.23-.06.47-.09.73-.09.19,0,.37.01.54.05.17.03.33.08.48.14.15.06.29.13.41.22.13.08.24.17.34.28l-.36.49s-.05.06-.08.08c-.03.02-.08.04-.14.04s-.11-.02-.17-.06c-.06-.04-.13-.08-.22-.14-.08-.05-.19-.1-.32-.13-.13-.04-.29-.06-.49-.06-.22,0-.42.04-.6.12-.18.08-.34.2-.47.34-.13.15-.23.33-.3.55-.07.22-.11.47-.11.74s.04.53.11.75c.08.22.19.4.32.55.14.15.29.26.47.34.18.07.38.11.58.11.12,0,.23,0,.33-.01.1-.02.2-.03.28-.06.08-.03.17-.07.24-.11s.15-.1.23-.17c.03-.02.05-.04.08-.05.03-.01.06-.02.09-.02v-.03Z"/>
  <path class="cls-1" d="M49.19,122.2c-.17.12-.29.25-.35.4-.08.14-.11.29-.11.46,0,.13.02.24.06.34.04.1.1.18.17.25.08.07.16.12.26.16.1.04.2.06.32.06.19,0,.36-.02.52-.08.16-.05.31-.13.44-.23l-1.29-1.35ZM52.71,124.57h-1.11s-.08-.02-.11-.03-.07-.03-.1-.06c-.03-.02-.06-.05-.1-.09l-.29-.31c-.23.17-.48.31-.76.41-.28.1-.57.14-.89.14-.2,0-.41-.04-.6-.1-.2-.07-.37-.17-.53-.3-.15-.13-.28-.29-.37-.47-.09-.19-.14-.4-.14-.63,0-.16.02-.31.08-.46.05-.14.12-.28.21-.4.09-.12.2-.23.32-.33.13-.1.26-.19.41-.25-.12-.18-.21-.35-.26-.52-.05-.17-.08-.34-.08-.5,0-.18.03-.35.1-.52.07-.16.17-.31.29-.43.13-.13.29-.22.47-.29.19-.07.4-.1.64-.1.22,0,.41.03.59.1.17.07.32.15.44.26.12.11.21.23.28.37.07.14.11.28.13.44l-.63.13c-.12.02-.2-.02-.26-.14-.05-.13-.11-.22-.2-.31-.08-.08-.2-.12-.35-.12-.09,0-.17.01-.25.05-.08.03-.14.07-.18.13-.05.05-.08.12-.11.19-.02.08-.04.15-.04.23,0,.07,0,.13.02.2.02.06.04.13.07.19s.08.13.12.19c.05.07.11.14.18.22l1.34,1.4c.08-.14.14-.3.17-.46.05-.16.08-.33.08-.49,0-.06.03-.11.06-.15.04-.04.08-.05.14-.05h.62c0,.33-.05.64-.14.94-.09.29-.22.56-.38.81l1.09,1.14h.03Z"/>
  <path class="cls-1" d="M41.59,120.37c-.03.05-.07.1-.11.12-.03.02-.07.04-.14.04s-.11-.01-.17-.05c-.06-.04-.13-.07-.21-.12-.08-.05-.17-.08-.28-.12s-.23-.06-.37-.06c-.25,0-.44.05-.56.16-.13.11-.19.25-.19.43,0,.11.03.21.1.28.07.07.16.13.27.19.11.05.24.1.38.15.14.05.29.09.44.14.15.05.29.11.44.18.14.07.26.16.38.26s.2.23.27.39c.07.15.11.34.11.55,0,.24-.04.46-.13.67-.08.2-.2.38-.35.54-.16.15-.35.27-.58.36-.23.09-.49.14-.77.14-.17,0-.33-.02-.5-.05-.17-.03-.32-.08-.47-.14-.15-.06-.29-.13-.43-.22-.14-.08-.25-.18-.35-.28l.32-.51s.06-.07.11-.09c.04-.02.09-.04.14-.04.07,0,.14.02.2.08.08.04.16.1.25.16.09.06.2.11.32.16.13.05.27.07.44.07.25,0,.44-.06.58-.17.14-.11.21-.28.21-.51,0-.13-.04-.24-.11-.32-.07-.08-.16-.15-.26-.2-.11-.05-.23-.1-.38-.14-.14-.04-.29-.08-.44-.13-.15-.05-.29-.1-.44-.17s-.26-.16-.38-.26c-.11-.11-.2-.25-.27-.41-.07-.16-.1-.37-.1-.61,0-.19.04-.38.11-.56.08-.18.19-.34.34-.48.15-.14.33-.26.55-.34.22-.08.47-.13.74-.13.32,0,.6.05.87.15.27.1.5.23.68.4l-.26.5v-.02Z"/>
  <path class="cls-1" d="M36.33,120.24h-1.52v4.33h-1.08v-4.33h-1.53v-.87h4.13v.87Z"/>
  <path class="cls-1" d="M27.93,121.84c.17,0,.32-.02.45-.07.13-.05.23-.1.32-.18.08-.07.14-.17.18-.28.04-.1.06-.22.06-.34,0-.25-.08-.44-.25-.57-.17-.13-.41-.2-.74-.2h-.56v1.64h.56,0ZM30.45,124.57h-.97c-.18,0-.32-.07-.4-.21l-.99-1.6c-.04-.06-.08-.1-.14-.13-.05-.03-.12-.05-.22-.05h-.37v1.98h-1.08v-5.2h1.64c.36,0,.68.04.93.11.26.08.47.18.64.31.17.13.29.29.36.48s.11.39.11.61c0,.17-.02.34-.08.49-.05.15-.12.29-.21.42-.09.13-.21.24-.35.34-.14.1-.29.18-.47.24.07.04.14.08.2.14.06.05.11.11.16.19l1.21,1.87h0Z"/>
  <path class="cls-1" d="M23.71,121.97c0,.38-.07.73-.2,1.06-.13.32-.31.61-.54.84-.23.24-.51.42-.84.56-.33.13-.69.2-1.09.2s-.77-.07-1.09-.2c-.33-.14-.61-.32-.84-.56-.23-.24-.41-.52-.55-.84-.13-.32-.19-.67-.19-1.06s.06-.73.19-1.05c.13-.32.31-.61.55-.84.23-.24.52-.42.84-.55.33-.13.69-.2,1.09-.2s.77.07,1.09.2c.33.13.61.32.84.56.23.24.41.52.54.84.13.32.2.68.2,1.05h0ZM22.62,121.97c0-.27-.04-.52-.11-.73-.08-.22-.17-.4-.32-.55-.14-.15-.3-.27-.49-.34-.19-.08-.41-.12-.65-.12s-.47.04-.65.12c-.2.08-.36.19-.5.34-.14.15-.24.34-.31.55-.08.22-.11.46-.11.73s.04.52.11.73c.08.22.17.4.31.55.14.15.3.26.5.34.2.08.41.12.65.12s.46-.04.65-.12c.2-.08.36-.19.49-.34.14-.15.24-.33.32-.55.08-.22.11-.46.11-.73Z"/>
  <path class="cls-1" d="M15.75,120.37c-.03.05-.07.1-.11.12-.03.02-.08.04-.14.04s-.11-.01-.17-.05c-.06-.04-.13-.07-.21-.12-.08-.05-.17-.08-.28-.12-.11-.04-.23-.06-.37-.06-.25,0-.44.05-.56.16-.13.11-.19.25-.19.43,0,.11.03.21.1.28s.16.13.27.19c.11.05.24.1.38.15s.29.09.44.14.29.11.44.18c.14.07.27.16.38.26.11.1.2.23.27.39.07.15.11.34.11.55,0,.24-.05.46-.13.67-.08.2-.2.38-.35.54-.16.15-.35.27-.58.36-.23.09-.49.14-.77.14-.17,0-.33-.02-.5-.05-.17-.03-.32-.08-.47-.14s-.29-.13-.43-.22c-.14-.08-.25-.18-.35-.28l.32-.51s.06-.07.11-.09c.05-.02.09-.04.14-.04.07,0,.14.02.2.08.08.04.16.1.25.16s.2.11.32.16c.13.05.27.07.44.07.25,0,.44-.06.58-.17s.21-.28.21-.51c0-.13-.04-.24-.11-.32-.07-.08-.16-.15-.26-.2-.11-.05-.23-.1-.38-.14-.14-.04-.29-.08-.44-.13-.15-.05-.29-.1-.44-.17-.14-.07-.27-.16-.38-.26-.11-.11-.2-.25-.27-.41-.07-.16-.1-.37-.1-.61,0-.19.04-.38.11-.56.08-.18.19-.34.34-.48.15-.14.33-.26.55-.34.22-.08.47-.13.74-.13.32,0,.6.05.87.15.27.1.5.23.68.4l-.26.5v-.02Z"/>
  <path class="cls-1" d="M8.09,120.22v1.34h1.74v.81h-1.74v1.36h2.23v.84h-3.32v-5.2h3.32v.84h-2.23Z"/>
  <path class="cls-1" d="M2.17,121.84c.17,0,.32-.02.45-.07.13-.05.23-.1.32-.18s.14-.17.18-.28.06-.22.06-.34c0-.25-.08-.44-.25-.57-.17-.13-.41-.2-.74-.2h-.56v1.64h.56,0ZM4.7,124.57h-.97c-.18,0-.32-.07-.4-.21l-.99-1.6c-.04-.06-.08-.1-.14-.13-.05-.03-.12-.05-.22-.05h-.37v1.98H.55v-5.2h1.64c.36,0,.68.04.93.11.26.08.47.18.64.31.17.13.29.29.36.48s.11.39.11.61c0,.17-.02.34-.08.49-.05.15-.12.29-.21.42-.09.13-.21.24-.35.34-.14.1-.29.18-.47.24.07.04.14.08.2.14.06.05.11.11.16.19l1.21,1.87h0Z"/>
</svg>