<?xml version="1.0" encoding="UTF-8"?>
<svg width="199px" height="27px" viewBox="0 0 199 27" version="1.1" xmlns="http://www.w3.org/2000/svg" xmlns:xlink="http://www.w3.org/1999/xlink">
    <!-- Generator: Sketch 42 (36781) - http://www.bohemiancoding.com/sketch -->
    <title>Page 1</title>
    <desc>Created with Sketch.</desc>
    <defs></defs>
    <g id="Page-1" stroke="none" stroke-width="1" fill="none" fill-rule="evenodd">
        <g id="New-Colors-Copy" transform="translate(-2.000000, -23.000000)">
            <g id="Page-1" transform="translate(2.000000, 23.000000)">
                <path d="M18.8514497,26.8234615 C16.7370747,26.8234615 14.7491476,25.9982308 13.2531927,24.5007692 L2.31441146,13.5394615 C-0.771470486,10.4469231 -0.771470486,5.41523077 2.31441146,2.32130769 C5.40167535,-0.769153846 10.4243524,-0.769153846 13.5102344,2.32130769 L20.0495955,8.874 L17.6533038,11.2735385 L11.1153247,4.72153846 C9.34919965,2.95338462 6.47544618,2.95338462 4.70932118,4.72223077 C2.94388715,6.49176923 2.94388715,9.37107692 4.71001215,11.1399231 L15.6481024,22.1012308 C16.503526,22.9576154 17.6415573,23.4290769 18.8514497,23.4290769 C20.061342,23.4290769 21.2000642,22.9576154 22.0547969,22.0998462 L24.4497066,24.5000769 C22.9544427,25.9968462 20.9658247,26.8234615 18.8514497,26.8234615" id="Fill-1" fill="#F15A28"></path>
                <path d="M18.8510351,26.8234615 C16.7366601,26.8234615 14.748733,25.9968462 13.2534691,24.4993846 L7.65590312,18.891 L24.1936323,2.32130769 C25.6888962,0.823153846 27.6761323,0 29.7905073,0 C31.9048823,0 33.8928094,0.823153846 35.3880733,2.32130769 C38.4753372,5.41523077 38.4753372,10.4469231 35.3880733,13.5394615 L24.449983,24.5007692 C22.9533372,25.9982308 20.9654101,26.8234615 18.8510351,26.8234615 L18.8510351,26.8234615 Z M12.4464135,18.891 L15.6483788,22.0998462 C16.5038024,22.9555385 17.6418337,23.4290769 18.8510351,23.4290769 C20.0609274,23.4290769 21.1989587,22.9576154 22.0550733,22.1005385 L32.9924726,11.1399231 C34.7585976,9.37107692 34.7585976,6.49176923 32.9924726,4.72153846 C32.1377399,3.86584615 31.0003997,3.39369231 29.7905073,3.39369231 C28.5806149,3.39369231 27.4446566,3.86584615 26.587851,4.72223077 L12.4464135,18.891 Z" id="Fill-2" fill="#F8941D"></path>
                <path d="M47.1748156,3.10790769 C47.3952358,3.06706154 47.6301663,3.03729231 47.8802983,3.01721538 C48.1311212,2.99852308 48.3660517,2.98744615 48.5864719,2.98744615 C48.806892,2.98744615 49.0418226,2.99852308 49.2926455,3.01721538 C49.5427774,3.03729231 49.777708,3.06706154 49.9981281,3.10790769 L59.3994962,19.3584462 L59.3994962,3.10790769 C59.6399545,3.06706154 59.8900865,3.03729231 60.150583,3.01721538 C60.4103885,2.99852308 60.6708851,2.98744615 60.9313816,2.98744615 C61.1518017,2.98744615 61.3818955,2.99852308 61.6223538,3.01721538 C61.8628122,3.03729231 62.0922149,3.06706154 62.313326,3.10790769 L62.313326,24.7452923 C62.0922149,24.7854462 61.8572844,24.8152154 61.6071524,24.8359846 C61.3563295,24.8560615 61.121399,24.8657538 60.9016698,24.8657538 C60.6805587,24.8657538 60.4456281,24.8560615 60.1954962,24.8359846 C59.9446733,24.8152154 59.7097427,24.7854462 59.4900135,24.7452923 L50.0582427,8.58544615 L50.0582427,24.7452923 C49.8378226,24.7854462 49.602892,24.8152154 49.3527601,24.8359846 C49.1019372,24.8560615 48.857333,24.8657538 48.6161837,24.8657538 C48.3556872,24.8657538 48.1007184,24.8560615 47.8505865,24.8359846 C47.6004545,24.8152154 47.3751976,24.7854462 47.1748156,24.7452923 L47.1748156,3.10790769 Z" id="Fill-3" fill="#F15A28"></path>
                <path d="M72.4049062,25.1062615 C71.2033056,25.1062615 70.1523368,24.9006462 69.251309,24.4894154 C68.3504194,24.0788769 67.5993326,23.5118769 66.9988778,22.7898 C66.3977319,22.0663385 65.9520549,21.2148 65.6618465,20.2317231 C65.3716382,19.2486462 65.226534,18.1845692 65.226534,17.0422615 C65.226534,15.8978769 65.3716382,14.8351846 65.6618465,13.8507231 C65.9520549,12.8690308 66.3977319,12.0161077 66.9988778,11.2940308 C67.5993326,10.5705692 68.3504194,10.0001077 69.251309,9.5778 C70.1523368,9.15618462 71.2033056,8.94641538 72.4049062,8.94641538 C73.6065069,8.94641538 74.6574757,9.15618462 75.5591944,9.5778 C76.4602222,10.0001077 77.2106181,10.5705692 77.8117639,11.2940308 C78.4122187,12.0161077 78.8578958,12.8690308 79.1481042,13.8507231 C79.4383125,14.8351846 79.5834167,15.8978769 79.5834167,17.0422615 C79.5834167,18.1845692 79.4383125,19.2486462 79.1481042,20.2317231 C78.8578958,21.2148 78.4122187,22.0663385 77.8117639,22.7898 C77.2106181,23.5118769 76.4602222,24.0788769 75.5591944,24.4894154 C74.6574757,24.9006462 73.6065069,25.1062615 72.4049062,25.1062615 M72.4049062,22.7288769 C73.7868507,22.7288769 74.8081076,22.2276462 75.4686771,21.2244923 C76.1292465,20.2206462 76.4602222,18.8270308 76.4602222,17.0422615 C76.4602222,15.2554154 76.1292465,13.8673385 75.4686771,12.8731846 C74.8081076,11.8804154 73.7868507,11.3833385 72.4049062,11.3833385 C71.0236528,11.3833385 70.0065417,11.8804154 69.3563368,12.8731846 C68.7055792,13.8673385 68.3801312,15.2554154 68.3801312,17.0422615 C68.3801312,18.8270308 68.7055792,20.2206462 69.3563368,21.2244923 C70.0065417,22.2276462 71.0236528,22.7288769 72.4049062,22.7288769" id="Fill-4" fill="#F15A28"></path>
                <path d="M82.0163299,21.9462231 C82.5566701,22.1677615 83.1522882,22.3436077 83.803184,22.4737615 C84.4540799,22.6046077 85.0994479,22.6696846 85.7406701,22.6696846 C86.2015486,22.6696846 86.6416979,22.6198385 87.0625,22.5180692 C87.4826111,22.4183769 87.8481354,22.2681462 88.1590729,22.0666846 C88.4686285,21.8666077 88.7187604,21.6201462 88.9094687,21.3293769 C89.0994861,21.0386077 89.1948403,20.7132231 89.1948403,20.3518385 C89.1948403,19.9503 89.1195243,19.6193769 88.9695833,19.3583769 C88.8196424,19.0987615 88.6192604,18.8765308 88.3691285,18.6972231 C88.1183056,18.5158385 87.8280972,18.3600692 87.4978125,18.2306077 C87.1675278,18.0990692 86.8116771,17.9751462 86.4316424,17.8546846 L85.3806736,17.4621462 C84.0989201,16.9809923 83.1674896,16.4389154 82.5870729,15.8373 C82.0059653,15.2356846 81.7157569,14.4229154 81.7157569,13.4003769 C81.7157569,12.0365308 82.2015104,10.9530692 83.1723264,10.1499923 C84.1438333,9.3483 85.570691,8.94676154 87.4528993,8.94676154 C88.2336979,8.94676154 88.9992951,9.02083846 89.7503819,9.17245385 C90.5014687,9.32268462 91.1572014,9.49853077 91.7175799,9.69860769 C91.6775035,10.1001462 91.6028785,10.5016846 91.4923229,10.9018385 C91.3824583,11.3033769 91.2470278,11.6751462 91.0874132,12.0157615 C90.6465729,11.8551462 90.1207431,11.6993769 89.5106146,11.5491462 C88.8991042,11.3996077 88.2433715,11.3234538 87.5427257,11.3234538 C86.8020035,11.3234538 86.1462708,11.4549923 85.5755278,11.7146077 C85.0047847,11.9756077 84.7194132,12.4366846 84.7194132,13.0992231 C84.7194132,13.4412231 84.7892014,13.7306077 84.9294687,13.9708385 C85.0697361,14.2131462 85.2604444,14.4187615 85.5002118,14.5890692 C85.7406701,14.7593769 86.0156771,14.9040692 86.3266146,15.0245308 C86.6361701,15.1449923 86.9719826,15.2654538 87.3326701,15.3866077 L88.653809,15.8373 C89.1347257,15.9979154 89.5900764,16.1889923 90.0212431,16.4091462 C90.4510278,16.6306846 90.8213889,16.9055308 91.1323264,17.2364538 C91.4425729,17.5680692 91.6927049,17.9696077 91.8834132,18.4417615 C92.0734306,18.9118385 92.1680937,19.4788385 92.1680937,20.1413769 C92.1680937,20.8835308 92.0181528,21.5606077 91.7175799,22.1719154 C91.4176979,22.7846077 90.992059,23.3066077 90.4413542,23.7379154 C89.8906493,24.1692231 89.2252431,24.5043 88.4437535,24.7452231 C87.6629549,24.9861462 86.8020035,25.1059154 85.8608993,25.1059154 C84.8997569,25.1059154 84.0588437,25.0415308 83.3381597,24.9113769 C82.6167847,24.7805308 81.9458507,24.6060692 81.3253576,24.3838385 C81.365434,23.9836846 81.4504236,23.5766077 81.5810174,23.1660692 C81.7109201,22.7548385 81.8560243,22.3477615 82.0163299,21.9462231" id="Fill-5" fill="#F15A28"></path>
                <path d="M93.7303819,21.9462231 C94.2707222,22.1677615 94.8663403,22.3436077 95.5172361,22.4737615 C96.1681319,22.6046077 96.8135,22.6696846 97.4547222,22.6696846 C97.9156007,22.6696846 98.35575,22.6198385 98.7765521,22.5180692 C99.1966632,22.4183769 99.5621875,22.2681462 99.873125,22.0666846 C100.182681,21.8666077 100.432812,21.6201462 100.623521,21.3293769 C100.813538,21.0386077 100.908892,20.7132231 100.908892,20.3518385 C100.908892,19.9503 100.833576,19.6193769 100.683635,19.3583769 C100.533694,19.0987615 100.333312,18.8765308 100.083181,18.6972231 C99.8323576,18.5158385 99.5421493,18.3600692 99.2118646,18.2306077 C98.8815799,18.0990692 98.5257292,17.9751462 98.1456944,17.8546846 L97.0947257,17.4621462 C95.8129722,16.9809923 94.8815417,16.4389154 94.301125,15.8373 C93.7200174,15.2356846 93.429809,14.4229154 93.429809,13.4003769 C93.429809,12.0365308 93.9155625,10.9530692 94.8863785,10.1499923 C95.8578854,9.3483 97.2847431,8.94676154 99.1669514,8.94676154 C99.94775,8.94676154 100.713347,9.02083846 101.464434,9.17245385 C102.215521,9.32268462 102.871253,9.49853077 103.432323,9.69860769 C103.391556,10.1001462 103.316931,10.5016846 103.206375,10.9018385 C103.09651,11.3033769 102.96108,11.6751462 102.801465,12.0157615 C102.360625,11.8551462 101.834795,11.6993769 101.224667,11.5491462 C100.613156,11.3996077 99.9574236,11.3234538 99.2567778,11.3234538 C98.5160556,11.3234538 97.8603229,11.4549923 97.2895799,11.7146077 C96.7188368,11.9756077 96.4334653,12.4366846 96.4334653,13.0992231 C96.4334653,13.4412231 96.5032535,13.7306077 96.6435208,13.9708385 C96.7837882,14.2131462 96.9744965,14.4187615 97.2142639,14.5890692 C97.4547222,14.7593769 97.7297292,14.9040692 98.0406667,15.0245308 C98.3509132,15.1449923 98.6860347,15.2654538 99.0467222,15.3866077 L100.367861,15.8373 C100.848778,15.9979154 101.304128,16.1889923 101.735295,16.4091462 C102.165771,16.6306846 102.535441,16.9055308 102.846378,17.2364538 C103.156625,17.5680692 103.406757,17.9696077 103.597465,18.4417615 C103.787483,18.9118385 103.882146,19.4788385 103.882146,20.1413769 C103.882146,20.8835308 103.732205,21.5606077 103.432323,22.1719154 C103.13175,22.7846077 102.706111,23.3066077 102.155406,23.7379154 C101.60401,24.1692231 100.939295,24.5043 100.157806,24.7452231 C99.3770069,24.9861462 98.5160556,25.1059154 97.5749514,25.1059154 C96.613809,25.1059154 95.7728958,25.0415308 95.0522118,24.9113769 C94.3308368,24.7805308 93.6599028,24.6060692 93.0394097,24.3838385 C93.0794861,23.9836846 93.1644757,23.5766077 93.2950694,23.1660692 C93.4249722,22.7548385 93.5700764,22.3477615 93.7303819,21.9462231" id="Fill-6" fill="#F15A28"></path>
                <path d="M114.635056,14.5742538 C114.635056,13.3897154 114.335174,12.5679462 113.734028,12.1068692 C113.133573,11.6444077 112.262257,11.4145615 111.120771,11.4145615 C110.420125,11.4145615 109.764392,11.4699462 109.153573,11.5793308 C108.542753,11.6901 107.946444,11.8347923 107.366719,12.0161769 C106.985993,11.3536385 106.795285,10.5609462 106.795285,9.63879231 C107.475892,9.41725385 108.226979,9.24694615 109.048545,9.12648462 C109.86942,9.00602308 110.659892,8.94648462 111.421344,8.94648462 C113.42309,8.94648462 114.945302,9.40202308 115.986597,10.3151769 C117.027201,11.2290231 117.548194,12.6877154 117.548194,14.6947154 L117.548194,24.3544846 C116.847549,24.5151 115.996271,24.6805615 114.995743,24.8508692 C113.993833,25.0211769 112.972576,25.1063308 111.931972,25.1063308 C110.950792,25.1063308 110.064274,25.0170231 109.273802,24.8356385 C108.482639,24.6549462 107.811705,24.3655615 107.261,23.9640231 C106.710295,23.5617923 106.285347,23.0508692 105.984774,22.4291769 C105.684201,21.8067923 105.53426,21.0535615 105.53426,20.1708692 C105.53426,19.3082538 105.709076,18.5508692 106.059399,17.8994077 C106.409722,17.2472538 106.885802,16.7051769 107.486257,16.2738692 C108.086712,15.8425615 108.777684,15.5220231 109.559174,15.3108692 C110.339972,15.1004077 111.160847,14.9944846 112.021799,14.9944846 C112.66233,14.9944846 113.18816,15.0097154 113.599288,15.0408692 C114.009035,15.0706385 114.354521,15.1059462 114.635056,15.1447154 L114.635056,14.5742538 Z M114.635056,17.4923308 C114.335174,17.4528692 113.954448,17.4127154 113.493569,17.3718692 C113.032691,17.3324077 112.642292,17.3123308 112.322372,17.3123308 C111.080694,17.3123308 110.134063,17.5435615 109.483858,18.0046385 C108.832962,18.4657154 108.507514,19.1691 108.507514,20.1113308 C108.507514,20.7129462 108.617378,21.1851 108.837799,21.5257154 C109.058219,21.8663308 109.333917,22.1273308 109.664201,22.3073308 C109.994486,22.4887154 110.36001,22.5994846 110.760774,22.6382538 C111.160847,22.6791 111.541573,22.6991769 111.90226,22.6991769 C112.362448,22.6991769 112.837146,22.6735615 113.328427,22.6237154 C113.819017,22.5738692 114.25433,22.4991 114.635056,22.3980231 L114.635056,17.4923308 Z" id="Fill-7" fill="#F15A28"></path>
                <path d="M123.376545,21.4648615 C124.037115,21.7057846 124.728087,21.9162462 125.448771,22.0976308 C126.169455,22.2776308 127.050444,22.3683231 128.092431,22.3683231 C129.73349,22.3683231 130.960656,22.0325538 131.771167,21.3596308 C132.582368,20.6874 132.987969,19.7797846 132.987969,18.6360923 C132.987969,18.0753231 132.902288,17.5934769 132.733,17.1919385 C132.56233,16.7904 132.307361,16.4442462 131.967403,16.1534769 C131.626062,15.8627077 131.200424,15.5961692 130.690486,15.3559385 C130.179858,15.1150154 129.583549,14.8554 128.902941,14.5743231 L127.190712,13.8820154 C126.610295,13.6410923 126.079628,13.3745538 125.599403,13.0844769 C125.118486,12.7937077 124.702521,12.4364769 124.352889,12.0162462 C124.001875,11.5939385 123.726177,11.1086308 123.526486,10.5554769 C123.326104,10.0037077 123.226604,9.34809231 123.226604,8.58516923 C123.226604,6.76024615 123.847097,5.32924615 125.088774,4.29632308 C126.32976,3.2634 128.071701,2.74693846 130.314597,2.74693846 C131.276431,2.74693846 132.187132,2.82655385 133.048083,2.98786154 C133.909035,3.14847692 134.670486,3.34855385 135.331056,3.58947692 C135.230174,4.43132308 135.010444,5.26486154 134.670486,6.08663077 C134.128764,5.88655385 133.503434,5.70655385 132.793115,5.54593846 C132.082104,5.38463077 131.276431,5.30501538 130.374712,5.30501538 C129.113687,5.30501538 128.14149,5.56047692 127.461573,6.07209231 C126.780274,6.5844 126.440316,7.35078462 126.440316,8.37470769 C126.440316,8.79493846 126.525306,9.17224615 126.695285,9.50247692 C126.865264,9.8334 127.090521,10.1241692 127.371056,10.3754769 C127.65159,10.6274769 127.981875,10.8517846 128.362601,11.0532462 C128.742635,11.2533231 129.14409,11.4347077 129.56351,11.5939385 L131.246028,12.2564769 C132.046865,12.5770154 132.757184,12.9134769 133.379059,13.2637846 C133.998861,13.6154769 134.530219,14.0280923 134.970368,14.4981692 C135.410517,14.9703231 135.745639,15.5262462 135.976424,16.1687077 C136.206517,16.8104769 136.32191,17.5637077 136.32191,18.4249385 C136.32191,20.4928615 135.610899,22.1218615 134.188878,23.3160923 C132.767549,24.5096308 130.775476,25.1064 128.211969,25.1064 C127.591476,25.1064 127.030406,25.0856308 126.530142,25.0468615 C126.029187,25.0060154 125.563472,24.9450923 125.133687,24.8654769 C124.702521,24.7858615 124.287247,24.6854769 123.887174,24.5657077 C123.48641,24.4452462 123.075972,24.3137077 122.655861,24.1731692 C122.695247,23.7321692 122.785073,23.2807846 122.926031,22.8197077 C123.065608,22.3586308 123.21624,21.9072462 123.376545,21.4648615" id="Fill-8" fill="#F8941D"></path>
                <path d="M147.014705,14.5742538 C147.014705,13.3897154 146.714132,12.5679462 146.113677,12.1068692 C145.512531,11.6444077 144.641215,11.4145615 143.50042,11.4145615 C142.799083,11.4145615 142.143351,11.4699462 141.532531,11.5793308 C140.922403,11.6901 140.326094,11.8347923 139.745677,12.0161769 C139.365642,11.3536385 139.174934,10.5609462 139.174934,9.63879231 C139.856233,9.41725385 140.606628,9.24694615 141.428194,9.12648462 C142.249069,9.00602308 143.039542,8.94648462 143.800993,8.94648462 C145.80274,8.94648462 147.324951,9.40202308 148.366247,10.3151769 C149.407542,11.2290231 149.928535,12.6877154 149.928535,14.6947154 L149.928535,24.3544846 C149.227198,24.5151 148.376611,24.6805615 147.375392,24.8508692 C146.373483,25.0211769 145.352226,25.1063308 144.311622,25.1063308 C143.330441,25.1063308 142.443924,25.0170231 141.65276,24.8356385 C140.862288,24.6549462 140.191354,24.3655615 139.640649,23.9640231 C139.089944,23.5617923 138.664306,23.0508692 138.363733,22.4291769 C138.063851,21.8067923 137.91391,21.0535615 137.91391,20.1708692 C137.91391,19.3082538 138.088726,18.5508692 138.43974,17.8994077 C138.789372,17.2472538 139.265451,16.7051769 139.865906,16.2738692 C140.466361,15.8425615 141.157333,15.5220231 141.938132,15.3108692 C142.719622,15.1004077 143.540497,14.9944846 144.401448,14.9944846 C145.041979,14.9944846 145.567809,15.0097154 145.978247,15.0408692 C146.388684,15.0706385 146.73417,15.1059462 147.014705,15.1447154 L147.014705,14.5742538 Z M147.014705,17.4923308 C146.714132,17.4528692 146.334097,17.4127154 145.873219,17.3718692 C145.41234,17.3324077 145.021941,17.3123308 144.70133,17.3123308 C143.459653,17.3123308 142.513712,17.5435615 141.863507,18.0046385 C141.212611,18.4657154 140.887163,19.1691 140.887163,20.1113308 C140.887163,20.7129462 140.997028,21.1851 141.217448,21.5257154 C141.437868,21.8663308 141.712875,22.1273308 142.043851,22.3073308 C142.374135,22.4887154 142.73966,22.5994846 143.140424,22.6382538 C143.540497,22.6791 143.920531,22.6991769 144.281219,22.6991769 C144.742097,22.6991769 145.216795,22.6735615 145.708076,22.6237154 C146.197976,22.5738692 146.633979,22.4991 147.014705,22.3980231 L147.014705,17.4923308 Z" id="Fill-9" fill="#F8941D"></path>
                <path d="M153.022708,9.30752308 C153.242438,9.26667692 153.49326,9.23690769 153.773795,9.21683077 C154.053639,9.19675385 154.294097,9.18706154 154.494479,9.18706154 C154.714208,9.18706154 154.965031,9.19675385 155.245566,9.21683077 C155.52541,9.23690769 155.775542,9.26667692 155.996653,9.30752308 L155.996653,17.7640615 C155.996653,18.7263692 156.086479,19.5246 156.266132,20.1559846 C156.446476,20.7887538 156.717337,21.2851385 157.077333,21.6458308 C157.438021,22.0072154 157.87817,22.2585231 158.399163,22.3976769 C158.919465,22.5382154 159.51992,22.6088308 160.201219,22.6088308 C161.222476,22.6088308 162.093792,22.4994462 162.814476,22.2772154 L162.814476,9.30752308 C163.034205,9.26667692 163.280191,9.23690769 163.550361,9.21683077 C163.820531,9.19675385 164.065826,9.18706154 164.286247,9.18706154 C164.505976,9.18706154 164.751962,9.19675385 165.022132,9.21683077 C165.292302,9.23690769 165.536906,9.26667692 165.758017,9.30752308 L165.758017,24.2641385 C165.056681,24.4656 164.221295,24.6546 163.250479,24.8359846 C162.278972,25.0166769 161.272226,25.1059846 160.231622,25.1059846 C159.250441,25.1059846 158.323847,25.0208308 157.453222,24.8505231 C156.581906,24.6802154 155.816309,24.3340615 155.155049,23.8120615 C154.494479,23.2914462 153.973486,22.5589846 153.593451,21.6160615 C153.212726,20.6724462 153.022708,19.4297538 153.022708,17.8845231 L153.022708,9.30752308 Z M160.201219,6.86990769 C159.980799,6.91006154 159.74034,6.93983077 159.480535,6.95990769 C159.220038,6.98067692 158.92983,6.98967692 158.609219,6.98967692 C158.388799,6.98967692 158.163542,6.98067692 157.933448,6.95990769 C157.702663,6.93983077 157.468424,6.91006154 157.227965,6.86990769 L160.682135,3.04698462 C160.982017,3.00752308 161.292955,2.97775385 161.613566,2.95767692 C161.933486,2.9376 162.263771,2.92652308 162.60442,2.92652308 C162.965108,2.92652308 163.294701,2.9376 163.595274,2.95767692 C163.895847,2.97775385 164.185365,3.00752308 164.465899,3.04698462 L160.201219,6.86990769 Z" id="Fill-10" fill="#F8941D"></path>
                <path d="M179.153896,2.68601538 C179.373625,2.64655385 179.624448,2.61678462 179.904983,2.59670769 C180.184826,2.57663077 180.425285,2.56555385 180.625667,2.56555385 C180.845396,2.56555385 181.091382,2.57663077 181.360861,2.59670769 C181.631722,2.61678462 181.876326,2.64655385 182.097438,2.68601538 L182.097438,24.3247846 C181.335986,24.5449385 180.485399,24.7304769 179.543604,24.8807077 C178.6025,25.0316308 177.551531,25.1064 176.390698,25.1064 C175.309326,25.1064 174.282542,24.9707077 173.311726,24.7007077 C172.340219,24.4300154 171.494469,23.9841692 170.773785,23.3604 C170.05241,22.7400923 169.482358,21.9370154 169.060865,20.9539385 C168.640753,19.9708615 168.430698,18.7565538 168.430698,17.3124 C168.430698,16.0683231 168.615878,14.9350154 168.98624,13.9117846 C169.356601,12.8878615 169.882431,12.0107077 170.563038,11.2789385 C171.244337,10.5464769 172.059684,9.97947692 173.011153,9.57793846 C173.961931,9.1764 175.019118,8.97632308 176.179951,8.97632308 C176.700253,8.97632308 177.226083,9.01716923 177.75675,9.09678462 C178.287417,9.1764 178.753132,9.27678462 179.153896,9.39793846 L179.153896,2.68601538 Z M179.153896,11.9255538 C178.753132,11.7642462 178.322656,11.6437846 177.862469,11.5641692 C177.40159,11.4845538 176.900635,11.4437077 176.360295,11.4437077 C175.538729,11.4437077 174.82841,11.5939385 174.227955,11.8957846 C173.626809,12.1955538 173.131382,12.6081692 172.740983,13.1287846 C172.350583,13.6507846 172.059684,14.2683231 171.869667,14.9800154 C171.679649,15.6924 171.584295,16.4698615 171.584295,17.3124 C171.604333,19.2190154 172.054847,20.5835538 172.936528,21.4053231 C173.816826,22.2277846 175.019118,22.6383231 176.540639,22.6383231 C177.060941,22.6383231 177.541858,22.6140923 177.982698,22.5642462 C178.422156,22.5144 178.813247,22.4382462 179.153896,22.3385538 L179.153896,11.9255538 Z" id="Fill-11" fill="#F8941D"></path>
                <path d="M187.923715,17.7639923 C187.963792,19.4490692 188.399104,20.6834538 189.230344,21.4650692 C190.060892,22.2480692 191.287368,22.6385308 192.909771,22.6385308 C194.331101,22.6385308 195.682642,22.3886077 196.964396,21.8866846 C197.12401,22.1871462 197.254604,22.5533769 197.354795,22.9846846 C197.454986,23.4159923 197.515101,23.8431462 197.535139,24.2640692 C196.874569,24.5451462 196.148358,24.7563 195.357885,24.8968385 C194.566031,25.0359923 193.690569,25.1059154 192.729427,25.1059154 C191.328135,25.1059154 190.126535,24.9113769 189.124625,24.5195308 C188.123406,24.1283769 187.297694,23.5766077 186.646799,22.8642231 C185.995903,22.1532231 185.520514,21.3106846 185.220632,20.3373 C184.920059,19.3639154 184.769427,18.2956846 184.769427,17.1312231 C184.769427,15.9889154 184.915222,14.9206846 185.205431,13.9265308 C185.494948,12.9337615 185.941316,12.0711462 186.541771,11.3386846 C187.142917,10.6069154 187.898149,10.0239923 188.809542,9.59268462 C189.720243,9.16137692 190.796778,8.94676154 192.038455,8.94676154 C193.099788,8.94676154 194.031219,9.12606923 194.832056,9.48745385 C195.632201,9.84814615 196.303826,10.3459154 196.844167,10.9773 C197.384507,11.6086846 197.794944,12.3619154 198.075479,13.2342231 C198.356014,14.1079154 198.496281,15.0556846 198.496281,16.0775308 C198.496281,16.3593 198.485917,16.6549154 198.466569,16.9664538 C198.44584,17.2773 198.425802,17.5438385 198.406455,17.7639923 L187.923715,17.7639923 Z M195.55274,15.5368385 C195.55274,14.9760692 195.478115,14.4374538 195.327483,13.9265308 C195.177542,13.4156077 194.957122,12.9690692 194.666913,12.5876077 C194.376705,12.2068385 194.006344,11.9008385 193.555139,11.6696077 C193.104625,11.4383769 192.569122,11.3234538 191.948628,11.3234538 C190.72699,11.3234538 189.790722,11.6952231 189.140517,12.4366846 C188.488931,13.1802231 188.093694,14.2131462 187.953427,15.5368385 L195.55274,15.5368385 Z" id="Fill-12" fill="#F8941D"></path>
            </g>
        </g>
    </g>
</svg>