<?xml version="1.0" encoding="UTF-8"?>
<svg id="Camada_2" data-name="Camada 2" xmlns="http://www.w3.org/2000/svg" viewBox="0 0 184.25 36.61">
  <defs>
    <style>
      .cls-1 {
        fill: #6633ff;
        fill-rule: evenodd;
      }
    </style>
  </defs>
  <g id="Camada_1-2" data-name="Camada 1">
    <path class="cls-1" d="m162.86,34.98c-1.23-.56-2.4-1.31-3.36-2.26-.33-.33-.4-.82-.18-1.23l2.71-4.95c.15-.27.37-.44.67-.51.3-.07.58-.02.83.15,1.73,1.18,4.37,2.06,6.42,2.39,1.07.17,2.43.27,3.49-.05.84-.26,1.4-.76,1.4-1.68,0-3.89-14.39-2.71-14.39-12.67,0-5.82,4.74-8.61,9.97-9.22,4.28-.5,10.24.47,13.5,3.48.39.36.44.95.13,1.37l-3.35,4.56c-.33.45-.95.56-1.41.25-1.34-.9-3.66-1.54-5.25-1.76-.98-.14-2.21-.22-3.17.05-.71.2-1.29.59-1.29,1.38,0,3.66,14.39,2.82,14.39,12.56,0,7.11-7.23,9.79-13.26,9.77-.31,0-.57-.12-.77-.35-1.4-1.58-4.61-1.42-6.51-1.19-.2.02-.38,0-.56-.09h0Zm-47.79-23.3v12.72c0,3.09,1.73,4.83,4.83,4.83h3.75c.57,0,1.04.47,1.04,1.04v2.23c0,.56-.45,1.02-1.01,1.04-.25,0-.53.02-.78.09-.64.16-1.27.34-1.9.51-.39.1-.78.21-1.18.23-.88.05-1.91-.39-2.73-.71-1.72-.65-3.41-.59-5.03.29-.38.2-.82.16-1.15-.11-.09-.07-.17-.14-.25-.21-2.79-2.42-3.64-5.64-3.64-9.21V1.04c0-.57.47-1.04,1.04-1.04h5.99c.57,0,1.04.47,1.04,1.04v3.8h5.57c.57,0,1.04.47,1.04,1.04v4.77c0,.57-.47,1.04-1.04,1.04h-5.57Zm-22.39-5.1v-.71c0-.57.47-1.04,1.04-1.04h5.99c.57,0,1.04.47,1.04,1.04v25.39c0,.34-.14.63-.41.83-.27.2-.59.26-.91.17-1.56-.45-3.86.01-5.14,1.02l-1.4,1.43c-.09.09-.17.15-.29.21-.01,0-.03.01-.04.02-.26.13-.54.14-.81.04-1.92-.71-3.82-1.4-5.88-1.58-2.71-.24-5.45.38-8.01,1.21-.35.11-.7.05-.98-.18-.21-.17-.42-.37-.65-.53-.43-.3-.91-.52-1.43-.59-.2-.03-.37-.11-.53-.24-4.06-3.49-5.87-9.05-5.3-14.3.61-5.69,3.89-10.55,9.24-12.77,4.3-1.78,10.29-1.48,14.48.6h0Zm62.43-.71v26.21c0,.34-.15.63-.41.83-.27.2-.59.26-.91.17-3.49-1.02-7.35-1.45-10.98-1.45-2.63,0-6.89.27-9.21,1.53-.23.12-.46.26-.66.42-.42.32-1,.28-1.37-.1-3.17-3.24-4.24-8.36-4.24-12.75V5.87c0-.57.47-1.04,1.04-1.04h5.99c.57,0,1.04.47,1.04,1.04v14.86c0,3.97,1.21,7.77,5.83,7.77s5.83-3.86,5.83-7.77V5.87c0-.57.47-1.04,1.04-1.04h5.99c.57,0,1.04.47,1.04,1.04h0Zm-87.74,0v6.06c0,.56-.45,1.02-1.01,1.04-2.33.06-4.13.41-5.85,2.11-1.55,1.53-2.14,3.51-2.14,5.65v12.65c0,.44-.25.81-.66.97-.41.16-.84.06-1.14-.26-.76-.83-1.67-1.29-2.76-1.51-.74-.15-1.48-.13-2.21.06-.32.08-.63.02-.89-.19-.26-.2-.4-.49-.4-.82v-10.9c0-9.5,6.39-15.89,15.89-15.89h.14c.57,0,1.04.47,1.04,1.04h0Zm-30.1-1.04h5.57c.57,0,1.04.47,1.04,1.04v4.77c0,.57-.47,1.04-1.04,1.04h-5.57v12.72c0,3.09,1.73,4.83,4.83,4.83h3.75c.57,0,1.04.47,1.04,1.04v1.5c0,.56-.45,1.02-1.01,1.04-1.07.03-1.98.5-2.75,1.23-1.53,1.45-3.07,1.86-5.12,1.93-.34.01-.64-.13-.85-.4-1.33-1.7-3.15-3.17-5.35-3.47-.3-.04-.55-.19-.72-.45-1.34-1.98-1.88-4.31-1.88-6.68V1.04c0-.57.47-1.04,1.04-1.04h5.99c.57,0,1.04.47,1.04,1.04v3.8h0Zm-19.17,30.48c-2.51-.63-5.34-.7-7.45,1.01-.22.17-.46.25-.74.23-3.3-.28-7.19-1.43-9.59-3.82-.33-.33-.4-.82-.18-1.23l2.71-4.95c.15-.27.37-.44.67-.51.3-.07.58-.02.83.15,1.73,1.18,4.37,2.06,6.42,2.39,1.07.17,2.43.27,3.49-.05.84-.26,1.4-.76,1.4-1.68,0-3.89-14.39-2.71-14.39-12.67,0-5.82,4.74-8.61,9.97-9.22,4.28-.5,10.24.47,13.5,3.48.39.36.44.95.13,1.37l-3.35,4.56c-.33.45-.95.56-1.41.25-1.34-.9-3.66-1.54-5.25-1.76-.98-.14-2.21-.22-3.17.05-.7.2-1.29.59-1.29,1.38,0,.87.78,1.41,1.47,1.77,1.14.61,2.46,1.01,3.68,1.44,3.07,1.08,6.3,2.42,8.16,5.25,1.52,2.32,1.38,5.9.03,8.26-1.12,1.97-2.91,3.35-4.96,4.25-.22.1-.43.11-.67.06h0Zm66.74-6.79c4.31,0,7.81-3.5,7.81-7.81s-3.5-7.81-7.81-7.81-7.81,3.5-7.81,7.81,3.5,7.81,7.81,7.81Z"/>
  </g>
</svg>